<?xml version="1.0" encoding="UTF-8" standalone="no"?>
<!-- Generator: Adobe Illustrator 19.0.0, SVG Export Plug-In . SVG Version: 6.00 Build 0)  -->

<svg
   version="1.1"
   id="Layer_1"
   x="0px"
   y="0px"
   viewBox="0 0 1935.1181 1935.1181"
   xml:space="preserve"
   sodipodi:docname="armstrong.svg"
   inkscape:version="1.2.2 (732a01da63, 2022-12-09)"
   inkscape:export-filename="C:\Users\zjx8rj\Downloads\armstrong.png"
   inkscape:export-xdpi="96"
   inkscape:export-ydpi="96"
   width="512mm"
   height="512mm"
   xmlns:inkscape="http://www.inkscape.org/namespaces/inkscape"
   xmlns:sodipodi="http://sodipodi.sourceforge.net/DTD/sodipodi-0.dtd"
   xmlns="http://www.w3.org/2000/svg"
   xmlns:svg="http://www.w3.org/2000/svg"><defs
   id="defs67" /><sodipodi:namedview
   id="namedview65"
   pagecolor="#ffffff"
   bordercolor="#666666"
   borderopacity="1.0"
   inkscape:pageshadow="2"
   inkscape:pageopacity="0.0"
   inkscape:pagecheckerboard="0"
   showgrid="false"
   inkscape:zoom="0.39648438"
   inkscape:cx="1336.7488"
   inkscape:cy="578.83744"
   inkscape:window-width="3840"
   inkscape:window-height="2036"
   inkscape:window-x="-12"
   inkscape:window-y="-12"
   inkscape:window-maximized="1"
   inkscape:current-layer="Layer_1"
   inkscape:showpageshadow="2"
   inkscape:deskcolor="#d1d1d1"
   inkscape:document-units="mm" />












<rect
   style="fill:#ffffff;fill-opacity:1;stroke:none;stroke-width:11.3131"
   id="rect304"
   width="1935.1182"
   height="1935.1182"
   x="-2.691314e-05"
   y="-2.691314e-05"
   rx="120.94489" /><g
   id="g34">
</g>
<g
   id="g36">
</g>
<g
   id="g38">
</g>
<g
   id="g40">
</g>
<g
   id="g42">
</g>
<g
   id="g44">
</g>
<g
   id="g46">
</g>
<g
   id="g48">
</g>
<g
   id="g50">
</g>
<g
   id="g52">
</g>
<g
   id="g54">
</g>
<g
   id="g56">
</g>
<g
   id="g58">
</g>
<g
   id="g60">
</g>
<g
   id="g62">
</g>
<g
   id="g970"
   transform="matrix(2.5836817,0,0,2.5836817,676.57084,265.42171)"><g
     id="g16"
     transform="rotate(-36.396864,141.71472,386.579)">
	<rect
   x="101.487"
   y="303.61499"
   style="fill:#8b8b8b"
   width="33.395"
   height="82.473999"
   id="rect12" />
	<rect
   x="101.487"
   y="94.786003"
   style="fill:#8b8b8b"
   width="33.395"
   height="82.473999"
   id="rect14" />
</g><path
     style="fill:#f0c838"
     d="M 122.58315,318.35436 44.318556,376.04938 -50.476633,247.45758 27.787958,189.76256 Z"
     id="path18" /><path
     style="fill:#e79c25"
     d="M 122.58315,318.35436 83.450852,347.20187 -11.344337,218.61007 27.787958,189.76256 Z"
     id="path20" /><g
     id="g951"
     transform="rotate(31.139728,-44.220024,143.4323)"><g
       id="g6"
       transform="rotate(-36.396864,141.71472,386.579)">
	<rect
   x="352.35999"
   y="51.922001"
   style="fill:#8b8b8b"
   width="82.473999"
   height="33.395"
   id="rect2" />
	<rect
   x="143.53101"
   y="51.922001"
   style="fill:#8b8b8b"
   width="82.473999"
   height="33.395"
   id="rect4" />
</g><path
       style="fill:#d7d7d7"
       d="m 261.24292,-20.414826 c -0.0298,0.02196 -0.0588,0.04332 -0.0902,0.06646 -27.24067,20.0029858 -65.67897,14.1146424 -85.68234,-13.128232 -19.97942,-27.212075 -14.12657,-65.590663 13.03406,-85.612912 0.0314,-0.0231 0.0628,-0.0463 0.0942,-0.0694 9.18379,-6.74401 20.1685,-10.75686 31.7665,-11.60534 l 2.43812,33.305267 c -5.40485,0.395191 -10.26332,2.15174 -14.43979,5.219364 -0.0137,0.01009 -0.029,0.02136 -0.0427,0.03145 -12.36286,9.113644 -15.02636,26.58165 -5.93212,38.968753 9.10535,12.398796 26.59941,15.079116 38.99961,5.973981 0.0145,-0.01068 0.0282,-0.02077 0.0419,-0.03086 4.15664,-3.064187 7.27178,-7.162009 9.26091,-12.183958 l 31.04793,12.297948 c -4.26991,10.775715 -11.35535,20.029134 -20.49609,26.767498 z"
       id="path8" /><path
       style="fill:#b0b0b0"
       d="m 250.69049,-59.481077 c -1.98913,5.021949 -5.10508,9.120364 -9.26091,12.183958 -0.0145,0.01068 -0.0282,0.02077 -0.0419,0.03086 -12.39938,9.104542 -29.89485,6.42401 -38.9996,-5.973981 l -26.91731,19.765847 c 20.00358,27.2414763 58.44129,33.1290148 85.68234,13.128233 0.0306,-0.02255 0.0604,-0.0445 0.0901,-0.06646 9.14074,-6.738365 16.2272,-15.993775 20.4955,-26.768304 z"
       id="path10" /><path
       style="fill:#f0c838"
       d="M 164.88896,34.87597 36.296352,129.67175 -21.398076,51.407966 107.19453,-43.387817 Z"
       id="path22" /><path
       style="fill:#e79c25"
       d="M 164.88896,34.87597 100.59306,82.273565 42.89863,4.009778 107.19453,-43.387817 Z"
       id="path24" /></g><path
     style="fill:#92e5ea"
     d="m -40.849901,178.58511 c -18.734659,13.8108 -45.212889,9.80486 -59.023688,-8.9298 -13.810801,-18.73466 -9.804861,-45.21289 8.929798,-59.02369 18.734659,-13.810797 45.212889,-9.80486 59.023688,8.9298 13.810799,18.73466 9.804861,45.21289 -8.929798,59.02369 z"
     id="path30" /><path
     style="fill:#79bbbc"
     d="m -40.849901,178.58511 -50.09389,-67.95349 c 18.734659,-13.810797 45.212889,-9.80486 59.023688,8.9298 13.810799,18.73466 9.804861,45.21289 -8.929798,59.02369 z"
     id="path32" /><path
     style="fill:#f0c838"
     d="M 236.364,504.683 H 0 V 487.986 C 0,422.82 53.017,369.804 118.182,369.804 c 65.165,0 118.182,53.017 118.182,118.182 z"
     id="path26" /><path
     style="fill:#e79c25"
     d="M 236.364,504.683 H 118.182 c 0,0 0,-86.022 0,-134.88 65.166,0 118.182,53.017 118.182,118.182 z"
     id="path28" /></g></svg>
